<svg width="188" height="165" viewBox="0 0 188 165" fill="none" xmlns="http://www.w3.org/2000/svg">
<g clip-path="url(#clip0_201_235)">
<g filter="url(#filter0_d_201_235)">
<path fill-rule="evenodd" clip-rule="evenodd" d="M85.023 99.7562C85.5267 100.269 85.9103 100.865 86.1519 101.508C86.3934 102.151 86.4881 102.83 86.4307 103.506C86.3732 104.181 86.1647 104.84 85.8169 105.445C85.4692 106.049 84.9892 106.588 84.4042 107.03L62.8233 123.358H80.5815C81.7806 123.358 82.9511 123.68 83.9358 124.28C84.9205 124.881 85.6722 125.731 86.0901 126.718C86.5079 127.704 86.5718 128.779 86.2733 129.798C85.9747 130.817 85.3279 131.732 84.4198 132.419L50.8383 157.802C50.254 158.244 49.5762 158.581 48.8435 158.794C48.1108 159.006 47.3376 159.09 46.568 159.04C45.7984 158.99 45.0475 158.808 44.3582 158.504C43.6689 158.199 43.0547 157.778 42.5507 157.266C42.0466 156.753 41.6626 156.158 41.4205 155.515C41.1784 154.872 41.083 154.193 41.1397 153.518C41.1965 152.842 41.4042 152.183 41.7512 151.578C42.0981 150.973 42.5774 150.434 43.1617 149.992L64.7503 133.671H47C45.7991 133.673 44.6264 133.352 43.6398 132.751C42.6532 132.15 41.9 131.298 41.4818 130.31C41.0637 129.322 41.0005 128.245 41.3008 127.225C41.6012 126.204 42.2506 125.289 43.1617 124.603L76.7353 99.22C77.3196 98.7775 77.9974 98.4403 78.7301 98.2278C79.4629 98.0152 80.2361 97.9315 81.0058 97.9813C81.7754 98.0311 82.5263 98.2134 83.2156 98.518C83.9049 98.8226 84.519 99.2433 85.023 99.7562ZM121.652 102.919C122.752 103.886 123.37 105.196 123.37 106.562C123.37 107.929 122.752 109.239 121.652 110.206L105.985 123.956C105.447 124.463 104.799 124.869 104.078 125.151C103.357 125.433 102.579 125.584 101.79 125.597C101.002 125.609 100.218 125.481 99.4865 125.222C98.755 124.963 98.0904 124.577 97.5325 124.087C96.9747 123.598 96.5349 123.014 96.2394 122.372C95.9439 121.73 95.7988 121.042 95.8127 120.35C95.8266 119.658 95.9993 118.975 96.3204 118.343C96.6415 117.71 97.1045 117.141 97.6817 116.669L113.348 102.919C114.45 101.953 115.943 101.411 117.5 101.411C119.057 101.411 120.55 101.953 121.652 102.919ZM137.318 126.981C138.419 127.948 139.037 129.259 139.037 130.625C139.037 131.991 138.419 133.302 137.318 134.269L121.652 148.019C121.114 148.525 120.465 148.932 119.745 149.213C119.024 149.495 118.246 149.647 117.457 149.659C116.668 149.671 115.885 149.544 115.153 149.285C114.422 149.025 113.757 148.639 113.199 148.15C112.641 147.66 112.202 147.077 111.906 146.435C111.611 145.793 111.465 145.105 111.479 144.413C111.493 143.72 111.666 143.038 111.987 142.405C112.308 141.773 112.771 141.203 113.348 140.731L129.015 126.981C130.117 126.016 131.61 125.473 133.167 125.473C134.724 125.473 136.217 126.016 137.318 126.981ZM105.985 133.856C107.085 134.823 107.703 136.134 107.703 137.5C107.703 138.866 107.085 140.177 105.985 141.144L90.3183 154.894C89.7805 155.4 89.1319 155.807 88.4112 156.088C87.6906 156.37 86.9126 156.522 86.1238 156.534C85.3349 156.546 84.5514 156.419 83.8198 156.16C83.0883 155.9 82.4238 155.514 81.8659 155.025C81.308 154.535 80.8682 153.952 80.5727 153.31C80.2772 152.668 80.1321 151.98 80.146 151.288C80.16 150.595 80.3326 149.913 80.6537 149.28C80.9748 148.648 81.4378 148.078 82.015 147.606L97.6817 133.856C98.7832 132.891 100.276 132.348 101.833 132.348C103.39 132.348 104.883 132.891 105.985 133.856Z" fill="#6B240C"/>
</g>
<g filter="url(#filter1_d_201_235)">
<path d="M149.805 125.503C148.542 122.329 146.134 119.604 142.946 117.742C139.757 115.879 135.964 114.981 132.14 115.184C134.589 111.993 135.594 108.115 134.961 104.309C134.327 100.502 132.1 97.0392 128.715 94.5959C125.329 92.1526 121.027 90.9042 116.649 91.0943C112.272 91.2845 108.131 92.8996 105.037 95.6244L98.1203 101.695C97.8215 98.8662 96.6408 96.1643 94.7077 93.8856C92.7747 91.6069 90.164 89.8394 87.1619 88.7769C84.1599 87.7145 80.8824 87.3982 77.6891 87.8626C74.4957 88.3271 71.5097 89.5544 69.0587 91.41L35.4928 116.793C32.524 119.041 30.5657 122.017 29.7745 125.235C25.4231 122.567 21.8689 119.017 19.413 114.887C16.9571 110.757 15.672 106.168 15.6667 101.509C15.6667 85.4219 30.6988 72.3869 49.2403 72.3869C51.465 72.3869 53.6427 72.5794 55.742 72.9369C53.902 68.6233 52.9627 64.0541 52.969 59.4481C52.969 38.005 73.0067 20.625 97.7287 20.625C120.759 20.625 139.723 35.7088 142.222 55.1031C159.737 60.3625 172.333 74.8069 172.333 91.8019C172.333 106.226 163.262 118.814 149.805 125.503Z" fill="#6B240C"/>
</g>
</g>
<defs>
<filter id="filter0_d_201_235" x="37.1141" y="97.9673" width="105.922" height="69.0869" filterUnits="userSpaceOnUse" color-interpolation-filters="sRGB">
<feFlood flood-opacity="0" result="BackgroundImageFix"/>
<feColorMatrix in="SourceAlpha" type="matrix" values="0 0 0 0 0 0 0 0 0 0 0 0 0 0 0 0 0 0 127 0" result="hardAlpha"/>
<feOffset dy="4"/>
<feGaussianBlur stdDeviation="2"/>
<feComposite in2="hardAlpha" operator="out"/>
<feColorMatrix type="matrix" values="0 0 0 0 0 0 0 0 0 0 0 0 0 0 0 0 0 0 0.25 0"/>
<feBlend mode="normal" in2="BackgroundImageFix" result="effect1_dropShadow_201_235"/>
<feBlend mode="normal" in="SourceGraphic" in2="effect1_dropShadow_201_235" result="shape"/>
</filter>
<filter id="filter1_d_201_235" x="11.6667" y="20.625" width="164.667" height="112.878" filterUnits="userSpaceOnUse" color-interpolation-filters="sRGB">
<feFlood flood-opacity="0" result="BackgroundImageFix"/>
<feColorMatrix in="SourceAlpha" type="matrix" values="0 0 0 0 0 0 0 0 0 0 0 0 0 0 0 0 0 0 127 0" result="hardAlpha"/>
<feOffset dy="4"/>
<feGaussianBlur stdDeviation="2"/>
<feComposite in2="hardAlpha" operator="out"/>
<feColorMatrix type="matrix" values="0 0 0 0 0 0 0 0 0 0 0 0 0 0 0 0 0 0 0.25 0"/>
<feBlend mode="normal" in2="BackgroundImageFix" result="effect1_dropShadow_201_235"/>
<feBlend mode="normal" in="SourceGraphic" in2="effect1_dropShadow_201_235" result="shape"/>
</filter>
<clipPath id="clip0_201_235">
<rect width="188" height="165" fill="white"/>
</clipPath>
</defs>
</svg>
