<svg width="194" height="101" viewBox="0 0 194 101" fill="none" xmlns="http://www.w3.org/2000/svg">
<g filter="url(#filter0_d_187_260)">
<path d="M97 52.3125C109.632 52.3125 120.792 55.335 129.86 59.2875C138.23 63.0075 143.5 71.3775 143.5 80.445V93H50.5V80.5225C50.5 71.3775 55.77 63.0075 64.14 59.365C73.2075 55.335 84.3675 52.3125 97 52.3125ZM35 54.25C43.525 54.25 50.5 47.275 50.5 38.75C50.5 30.225 43.525 23.25 35 23.25C26.475 23.25 19.5 30.225 19.5 38.75C19.5 47.275 26.475 54.25 35 54.25ZM43.7575 62.775C40.89 62.31 38.0225 62 35 62C27.3275 62 20.0425 63.6275 13.455 66.495C7.72 68.975 4 74.555 4 80.8325V93H38.875V80.5225C38.875 74.09 40.6575 68.045 43.7575 62.775ZM159 54.25C167.525 54.25 174.5 47.275 174.5 38.75C174.5 30.225 167.525 23.25 159 23.25C150.475 23.25 143.5 30.225 143.5 38.75C143.5 47.275 150.475 54.25 159 54.25ZM190 80.8325C190 74.555 186.28 68.975 180.545 66.495C173.958 63.6275 166.673 62 159 62C155.977 62 153.11 62.31 150.243 62.775C153.343 68.045 155.125 74.09 155.125 80.5225V93H190V80.8325ZM97 0C109.865 0 120.25 10.385 120.25 23.25C120.25 36.115 109.865 46.5 97 46.5C84.135 46.5 73.75 36.115 73.75 23.25C73.75 10.385 84.135 0 97 0Z" fill="#78A55A"/>
</g>
<defs>
<filter id="filter0_d_187_260" x="0" y="0" width="194" height="101" filterUnits="userSpaceOnUse" color-interpolation-filters="sRGB">
<feFlood flood-opacity="0" result="BackgroundImageFix"/>
<feColorMatrix in="SourceAlpha" type="matrix" values="0 0 0 0 0 0 0 0 0 0 0 0 0 0 0 0 0 0 127 0" result="hardAlpha"/>
<feOffset dy="4"/>
<feGaussianBlur stdDeviation="2"/>
<feComposite in2="hardAlpha" operator="out"/>
<feColorMatrix type="matrix" values="0 0 0 0 0 0 0 0 0 0 0 0 0 0 0 0 0 0 0.4 0"/>
<feBlend mode="normal" in2="BackgroundImageFix" result="effect1_dropShadow_187_260"/>
<feBlend mode="normal" in="SourceGraphic" in2="effect1_dropShadow_187_260" result="shape"/>
</filter>
</defs>
</svg>
