<svg width="41" height="36" viewBox="0 0 41 36" fill="none" xmlns="http://www.w3.org/2000/svg">
<path fill-rule="evenodd" clip-rule="evenodd" d="M18.2101 20.4686C18.3387 20.603 18.4367 20.7589 18.4983 20.9274C18.56 21.0959 18.5842 21.2737 18.5695 21.4506C18.5548 21.6275 18.5016 21.8001 18.4128 21.9585C18.3241 22.1169 18.2015 22.258 18.0521 22.3737L12.5425 26.6504H17.0762C17.3823 26.6503 17.6812 26.7346 17.9325 26.8919C18.1839 27.0492 18.3759 27.272 18.4825 27.5303C18.5892 27.7887 18.6055 28.0703 18.5293 28.3372C18.4531 28.6042 18.288 28.8438 18.0561 29.0238L9.48264 35.672C9.33347 35.7879 9.16041 35.8762 8.97334 35.9318C8.78628 35.9875 8.58887 36.0094 8.39239 35.9963C8.19592 35.9833 8.00422 35.9355 7.82824 35.8558C7.65226 35.776 7.49545 35.6659 7.36676 35.5315C7.23808 35.3972 7.14003 35.2414 7.07822 35.073C7.01642 34.9045 6.99206 34.7268 7.00655 34.5499C7.02103 34.373 7.07407 34.2004 7.16264 34.0419C7.25122 33.8835 7.37358 33.7423 7.52275 33.6264L13.0344 29.3515H8.5027C8.19611 29.352 7.89671 29.2679 7.64482 29.1105C7.39293 28.9531 7.20065 28.73 7.09389 28.4713C6.98712 28.2125 6.97099 27.9305 7.04767 27.6632C7.12435 27.3959 7.29015 27.1562 7.52275 26.9763L16.0943 20.3281C16.2434 20.2122 16.4165 20.1239 16.6035 20.0682C16.7906 20.0126 16.988 19.9906 17.1845 20.0037C17.381 20.0167 17.5727 20.0645 17.7487 20.1442C17.9247 20.224 18.0815 20.3342 18.2101 20.4686ZM27.5616 21.2969C27.8425 21.5501 28.0002 21.8934 28.0002 22.2513C28.0002 22.6092 27.8425 22.9524 27.5616 23.2057L23.5618 26.8071C23.4245 26.9398 23.2589 27.0462 23.0749 27.12C22.8909 27.1938 22.6923 27.2335 22.4909 27.2367C22.2895 27.2399 22.0895 27.2066 21.9027 27.1386C21.716 27.0707 21.5463 26.9696 21.4039 26.8414C21.2614 26.7131 21.1492 26.5604 21.0737 26.3922C20.9983 26.224 20.9612 26.0439 20.9648 25.8626C20.9683 25.6812 21.0124 25.5024 21.0944 25.3367C21.1764 25.1711 21.2946 25.022 21.4419 24.8983L25.4417 21.2969C25.7229 21.044 26.1042 20.9019 26.5016 20.9019C26.8991 20.9019 27.2803 21.044 27.5616 21.2969ZM31.5613 27.5994C31.8422 27.8526 32 28.1959 32 28.5538C32 28.9117 31.8422 29.2549 31.5613 29.5082L27.5616 33.1096C27.4243 33.2423 27.2587 33.3487 27.0747 33.4225C26.8907 33.4963 26.6921 33.536 26.4907 33.5392C26.2893 33.5424 26.0892 33.5091 25.9025 33.4411C25.7157 33.3732 25.5461 33.2721 25.4036 33.1439C25.2612 33.0156 25.1489 32.8629 25.0735 32.6947C24.998 32.5265 24.961 32.3464 24.9645 32.1651C24.9681 31.9837 25.0122 31.8049 25.0942 31.6392C25.1761 31.4736 25.2943 31.3245 25.4417 31.2008L29.4415 27.5994C29.7227 27.3465 30.1039 27.2044 30.5014 27.2044C30.8989 27.2044 31.2801 27.3465 31.5613 27.5994ZM23.5618 29.4001C23.8427 29.6533 24.0005 29.9966 24.0005 30.3545C24.0005 30.7124 23.8427 31.0556 23.5618 31.3089L19.562 34.9103C19.4247 35.043 19.2591 35.1494 19.0752 35.2232C18.8912 35.297 18.6925 35.3367 18.4912 35.3399C18.2898 35.3431 18.0897 35.3098 17.903 35.2418C17.7162 35.1739 17.5465 35.0728 17.4041 34.9446C17.2617 34.8163 17.1494 34.6636 17.0739 34.4954C16.9985 34.3272 16.9615 34.1471 16.965 33.9658C16.9686 33.7844 17.0127 33.6056 17.0946 33.4399C17.1766 33.2743 17.2948 33.1252 17.4422 33.0015L21.4419 29.4001C21.7232 29.1472 22.1044 29.0051 22.5019 29.0051C22.8994 29.0051 23.2806 29.1472 23.5618 29.4001Z" fill="black"/>
<path d="M35.1042 27C34.7739 26.183 34.1436 25.4814 33.3092 25.0019C32.4748 24.5224 31.4819 24.2912 30.4814 24.3434C31.1221 23.5218 31.3853 22.5237 31.2195 21.5437C31.0537 20.5637 30.471 19.6722 29.5849 19.0432C28.6989 18.4142 27.5731 18.0928 26.4274 18.1417C25.2817 18.1907 24.1982 18.6065 23.3885 19.308L21.5783 20.8708C21.5001 20.1425 21.1911 19.447 20.6852 18.8603C20.1793 18.2737 19.4961 17.8187 18.7105 17.5451C17.9248 17.2716 17.0671 17.1902 16.2314 17.3098C15.3957 17.4293 14.6142 17.7453 13.9728 18.223L5.18855 24.7575C4.4116 25.3363 3.8991 26.1027 3.69205 26.931C2.55329 26.2441 1.62313 25.3303 0.980423 24.267C0.337715 23.2037 0.00140483 22.0224 0 20.823C0 16.6814 3.93395 13.3257 8.7863 13.3257C9.3685 13.3257 9.9384 13.3752 10.4878 13.4673C10.0063 12.3568 9.76045 11.1804 9.7621 9.99469C9.7621 4.47434 15.006 0 21.4758 0C27.5028 0 32.4659 3.88319 33.1198 8.87611C37.7036 10.2301 41 13.9487 41 18.3239C41 22.0372 38.6261 25.2779 35.1042 27Z" fill="black"/>
</svg>
