<svg width="49" height="44" viewBox="0 0 49 44" fill="none" xmlns="http://www.w3.org/2000/svg">
<g filter="url(#filter0_d_327_10)">
<path fill-rule="evenodd" clip-rule="evenodd" d="M22.2101 20.4686C22.3387 20.603 22.4367 20.7589 22.4983 20.9274C22.56 21.0959 22.5842 21.2737 22.5695 21.4506C22.5548 21.6275 22.5016 21.8001 22.4128 21.9585C22.3241 22.1169 22.2015 22.258 22.0521 22.3737L16.5425 26.6504H21.0762C21.3823 26.6503 21.6812 26.7346 21.9325 26.8919C22.1839 27.0492 22.3759 27.272 22.4825 27.5303C22.5892 27.7887 22.6055 28.0703 22.5293 28.3372C22.4531 28.6042 22.288 28.8438 22.0561 29.0238L13.4826 35.672C13.3335 35.7879 13.1604 35.8762 12.9733 35.9318C12.7863 35.9875 12.5889 36.0094 12.3924 35.9963C12.1959 35.9833 12.0042 35.9355 11.8282 35.8558C11.6523 35.776 11.4955 35.6659 11.3668 35.5315C11.2381 35.3972 11.14 35.2414 11.0782 35.073C11.0164 34.9045 10.9921 34.7268 11.0065 34.5499C11.021 34.373 11.0741 34.2004 11.1626 34.0419C11.2512 33.8835 11.3736 33.7423 11.5228 33.6264L17.0344 29.3515H12.5027C12.1961 29.352 11.8967 29.2679 11.6448 29.1105C11.3929 28.9531 11.2007 28.73 11.0939 28.4713C10.9871 28.2125 10.971 27.9305 11.0477 27.6632C11.1243 27.3959 11.2902 27.1562 11.5228 26.9763L20.0943 20.3281C20.2434 20.2122 20.4165 20.1239 20.6035 20.0682C20.7906 20.0126 20.988 19.9906 21.1845 20.0037C21.381 20.0167 21.5727 20.0645 21.7487 20.1442C21.9247 20.224 22.0815 20.3342 22.2101 20.4686ZM31.5616 21.2969C31.8425 21.5501 32.0002 21.8934 32.0002 22.2513C32.0002 22.6092 31.8425 22.9524 31.5616 23.2057L27.5618 26.8071C27.4245 26.9398 27.2589 27.0462 27.0749 27.12C26.8909 27.1938 26.6923 27.2335 26.4909 27.2367C26.2895 27.2399 26.0895 27.2066 25.9027 27.1386C25.716 27.0707 25.5463 26.9696 25.4039 26.8414C25.2614 26.7131 25.1492 26.5604 25.0737 26.3922C24.9983 26.224 24.9612 26.0439 24.9648 25.8626C24.9683 25.6812 25.0124 25.5024 25.0944 25.3367C25.1764 25.1711 25.2946 25.022 25.4419 24.8983L29.4417 21.2969C29.7229 21.044 30.1042 20.9019 30.5016 20.9019C30.8991 20.9019 31.2803 21.044 31.5616 21.2969ZM35.5613 27.5994C35.8422 27.8526 36 28.1959 36 28.5538C36 28.9117 35.8422 29.2549 35.5613 29.5082L31.5616 33.1096C31.4243 33.2423 31.2587 33.3487 31.0747 33.4225C30.8907 33.4963 30.6921 33.536 30.4907 33.5392C30.2893 33.5424 30.0892 33.5091 29.9025 33.4411C29.7157 33.3732 29.5461 33.2721 29.4036 33.1439C29.2612 33.0156 29.1489 32.8629 29.0735 32.6947C28.998 32.5265 28.961 32.3464 28.9645 32.1651C28.9681 31.9837 29.0122 31.8049 29.0942 31.6392C29.1761 31.4736 29.2943 31.3245 29.4417 31.2008L33.4415 27.5994C33.7227 27.3465 34.1039 27.2044 34.5014 27.2044C34.8989 27.2044 35.2801 27.3465 35.5613 27.5994ZM27.5618 29.4001C27.8427 29.6533 28.0005 29.9966 28.0005 30.3545C28.0005 30.7124 27.8427 31.0556 27.5618 31.3089L23.562 34.9103C23.4247 35.043 23.2591 35.1494 23.0752 35.2232C22.8912 35.297 22.6925 35.3367 22.4912 35.3399C22.2898 35.3431 22.0897 35.3098 21.903 35.2419C21.7162 35.1739 21.5465 35.0728 21.4041 34.9446C21.2617 34.8163 21.1494 34.6636 21.0739 34.4954C20.9985 34.3272 20.9615 34.1471 20.965 33.9658C20.9686 33.7844 21.0127 33.6056 21.0946 33.4399C21.1766 33.2743 21.2948 33.1252 21.4422 33.0015L25.4419 29.4001C25.7232 29.1472 26.1044 29.0051 26.5019 29.0051C26.8994 29.0051 27.2806 29.1472 27.5618 29.4001Z" fill="black"/>
</g>
<g filter="url(#filter1_d_327_10)">
<path d="M39.1042 27C38.7739 26.183 38.1436 25.4814 37.3092 25.0019C36.4748 24.5224 35.4819 24.2912 34.4814 24.3434C35.1221 23.5218 35.3853 22.5237 35.2195 21.5437C35.0537 20.5637 34.471 19.6722 33.5849 19.0432C32.6989 18.4142 31.5731 18.0928 30.4274 18.1417C29.2817 18.1907 28.1982 18.6065 27.3885 19.308L25.5783 20.8708C25.5001 20.1425 25.1911 19.447 24.6852 18.8603C24.1793 18.2737 23.4961 17.8187 22.7105 17.5451C21.9248 17.2716 21.0671 17.1902 20.2314 17.3098C19.3957 17.4293 18.6142 17.7453 17.9728 18.223L9.18855 24.7575C8.4116 25.3363 7.8991 26.1027 7.69205 26.931C6.55329 26.2441 5.62313 25.3303 4.98042 24.267C4.33771 23.2037 4.0014 22.0224 4 20.823C4 16.6814 7.93395 13.3257 12.7863 13.3257C13.3685 13.3257 13.9384 13.3752 14.4878 13.4673C14.0063 12.3568 13.7605 11.1804 13.7621 9.99469C13.7621 4.47434 19.006 0 25.4758 0C31.5028 0 36.4659 3.88319 37.1198 8.87611C41.7036 10.2301 45 13.9487 45 18.3239C45 22.0372 42.6261 25.2779 39.1042 27Z" fill="black"/>
</g>
<defs>
<filter id="filter0_d_327_10" x="7" y="20" width="33" height="24" filterUnits="userSpaceOnUse" color-interpolation-filters="sRGB">
<feFlood flood-opacity="0" result="BackgroundImageFix"/>
<feColorMatrix in="SourceAlpha" type="matrix" values="0 0 0 0 0 0 0 0 0 0 0 0 0 0 0 0 0 0 127 0" result="hardAlpha"/>
<feOffset dy="4"/>
<feGaussianBlur stdDeviation="2"/>
<feComposite in2="hardAlpha" operator="out"/>
<feColorMatrix type="matrix" values="0 0 0 0 0 0 0 0 0 0 0 0 0 0 0 0 0 0 0.25 0"/>
<feBlend mode="normal" in2="BackgroundImageFix" result="effect1_dropShadow_327_10"/>
<feBlend mode="normal" in="SourceGraphic" in2="effect1_dropShadow_327_10" result="shape"/>
</filter>
<filter id="filter1_d_327_10" x="0" y="0" width="49" height="35" filterUnits="userSpaceOnUse" color-interpolation-filters="sRGB">
<feFlood flood-opacity="0" result="BackgroundImageFix"/>
<feColorMatrix in="SourceAlpha" type="matrix" values="0 0 0 0 0 0 0 0 0 0 0 0 0 0 0 0 0 0 127 0" result="hardAlpha"/>
<feOffset dy="4"/>
<feGaussianBlur stdDeviation="2"/>
<feComposite in2="hardAlpha" operator="out"/>
<feColorMatrix type="matrix" values="0 0 0 0 0 0 0 0 0 0 0 0 0 0 0 0 0 0 0.25 0"/>
<feBlend mode="normal" in2="BackgroundImageFix" result="effect1_dropShadow_327_10"/>
<feBlend mode="normal" in="SourceGraphic" in2="effect1_dropShadow_327_10" result="shape"/>
</filter>
</defs>
</svg>
