<svg width="16" height="16" viewBox="0 0 16 16" fill="none" xmlns="http://www.w3.org/2000/svg">
<path fill-rule="evenodd" clip-rule="evenodd" d="M1.88547 0.51017C2.06045 0.335459 2.27055 0.199929 2.50187 0.11256C2.73318 0.025192 2.98043 -0.012019 3.22721 0.00339321C3.47399 0.0188054 3.71469 0.0864889 3.93333 0.201958C4.15198 0.317428 4.34359 0.478046 4.49547 0.67317L6.29047 2.97917C6.61947 3.40217 6.73547 3.95317 6.60547 4.47317L6.05847 6.66317C6.03039 6.77661 6.03201 6.89537 6.06319 7.008C6.09437 7.12063 6.15405 7.22332 6.23647 7.30617L8.69347 9.76317C8.77642 9.84576 8.87928 9.90554 8.9921 9.93672C9.10492 9.9679 9.22388 9.96944 9.33747 9.94117L11.5265 9.39417C11.7831 9.33038 12.0509 9.32559 12.3096 9.38014C12.5684 9.4347 12.8114 9.54719 13.0205 9.70917L15.3265 11.5032C16.1555 12.1482 16.2315 13.3732 15.4895 14.1142L14.4555 15.1482C13.7155 15.8882 12.6095 16.2132 11.5785 15.8502C8.93914 14.9228 6.54301 13.4119 4.56847 11.4302C2.58684 9.45592 1.07602 7.06014 0.148471 4.42117C-0.213529 3.39117 0.111471 2.28417 0.851471 1.54417L1.88547 0.51017Z" fill="#0F0F0F"/>
</svg>
