<svg width="73" height="36" viewBox="0 0 73 36" fill="none" xmlns="http://www.w3.org/2000/svg">
<path d="M36.5 20.25C41.4579 20.25 45.8379 21.42 49.3967 22.95C52.6817 24.39 54.75 27.63 54.75 31.14V36H18.25V31.17C18.25 27.63 20.3183 24.39 23.6033 22.98C27.1621 21.42 31.5421 20.25 36.5 20.25ZM12.1667 21C15.5125 21 18.25 18.3 18.25 15C18.25 11.7 15.5125 9 12.1667 9C8.82083 9 6.08333 11.7 6.08333 15C6.08333 18.3 8.82083 21 12.1667 21ZM15.6038 24.3C14.4783 24.12 13.3529 24 12.1667 24C9.15542 24 6.29625 24.63 3.71083 25.74C1.46 26.7 0 28.86 0 31.29V36H13.6875V31.17C13.6875 28.68 14.3871 26.34 15.6038 24.3ZM60.8333 21C64.1792 21 66.9167 18.3 66.9167 15C66.9167 11.7 64.1792 9 60.8333 9C57.4875 9 54.75 11.7 54.75 15C54.75 18.3 57.4875 21 60.8333 21ZM73 31.29C73 28.86 71.54 26.7 69.2892 25.74C66.7038 24.63 63.8446 24 60.8333 24C59.6471 24 58.5217 24.12 57.3963 24.3C58.6129 26.34 59.3125 28.68 59.3125 31.17V36H73V31.29ZM36.5 0C41.5492 0 45.625 4.02 45.625 9C45.625 13.98 41.5492 18 36.5 18C31.4508 18 27.375 13.98 27.375 9C27.375 4.02 31.4508 0 36.5 0Z" fill="black"/>
</svg>
